# xmcd CD database file
#
# Track frame offsets:
#	150
#	40252
#	73928
#	109285
#	133022
#	163263
#	193688
#	223478
#	247195
#	273988
#	297904
#
# Disc length: 4394 seconds
#
# Revision: 0
# Processed by: cddbd v1.5.2PL0 Copyright (c) Steve Scherf et al.
# Submitted via: CDex 1.70beta2
#
DISCID=be11280b
DTITLE=Rotterdam Jazz Orchestra - Introducing
DYEAR=2005
DGENRE=Jazz
TTITLE0=Tale for Tale
TTITLE1=Nostalgia on Times Square
TTITLE2=Happy Birthday,Cat!
TTITLE3=Love For Sale,for Bill
TTITLE4=Have a Heart
TTITLE5=My one and only Love
TTITLE6=Speak no Evil
TTITLE7=Invitation
TTITLE8=Slow Piece
TTITLE9=Bohemia after Dark
TTITLE10=Original Blonde
EXTD=YEAR: 2005
EXTT0=
EXTT1=
EXTT2=
EXTT3=
EXTT4=
EXTT5=
EXTT6=
EXTT7=
EXTT8=
EXTT9=
EXTT10=
PLAYORDER=
